<svg version="1.1" id="Layer_1" xmlns="http://www.w3.org/2000/svg" xmlns:xlink="http://www.w3.org/1999/xlink" x="0px" y="0px"
	 width="100%" viewBox="0 0 641 511" enable-background="new 0 0 641 511" xml:space="preserve">
<path fill="#010101" opacity="1.000000" stroke="none" 
	d="
M641.000000,512.000000 
	C427.717010,512.000000 214.434036,512.000000 1.075531,512.000000 
	C1.075531,341.757263 1.075531,171.514465 1.075531,1.000000 
	C214.025757,1.000000 427.051636,1.000000 640.539185,1.462638 
	C641.000549,171.950180 641.000244,341.975098 641.000000,512.000000 
M184.731110,326.543213 
	C184.636139,326.910553 184.541168,327.277924 183.951035,328.000702 
	C183.618805,329.668243 183.286575,331.335754 182.768921,333.539703 
	C182.676712,333.906586 182.584503,334.273499 181.801270,334.699371 
	C180.031616,330.684021 178.261948,326.668701 176.284271,321.988556 
	C175.864990,320.659393 175.445709,319.330200 175.327255,317.500916 
	C174.516724,316.049316 173.706192,314.597748 172.052628,312.983948 
	C170.050598,313.009735 168.048553,313.035492 165.238525,313.062012 
	C164.935257,314.296539 164.375671,315.529572 164.368576,316.765808 
	C164.301605,328.423889 164.298386,340.082611 164.343307,351.740906 
	C164.362457,356.708771 167.040787,357.812653 172.153549,354.064331 
	C172.155228,349.090332 172.156906,344.116302 172.839478,338.970032 
	C173.291077,338.896301 173.742661,338.822571 174.349548,339.317566 
	C174.534592,339.877136 174.719650,340.436707 174.629501,341.532318 
	C175.591873,344.134644 176.554230,346.736938 177.683456,350.040619 
	C178.212967,351.632751 178.742477,353.224854 179.283569,355.464783 
	C180.828125,355.288422 182.372696,355.112091 184.157608,354.422760 
	C184.273163,354.063202 184.388718,353.703674 185.070312,352.959595 
	C186.432800,348.687042 187.795288,344.414490 189.411118,339.347473 
	C190.037659,340.704926 190.289032,341.000519 190.295242,341.301178 
	C190.363602,344.610596 190.389832,347.920898 190.435257,351.230835 
	C190.511047,356.754364 192.634384,357.821808 198.350204,354.166718 
	C198.350204,340.512726 198.350204,326.858765 198.350204,313.189606 
	C194.720474,313.189606 191.927765,313.189606 188.477692,313.232513 
	C187.950775,315.157501 187.423874,317.082489 186.726639,319.547882 
	C186.643814,319.916382 186.561005,320.284882 185.960022,320.982361 
	C185.612976,322.656830 185.265930,324.331268 184.731110,326.543213 
M383.485077,97.319962 
	C338.825409,97.317627 294.165619,97.367622 249.506393,97.226105 
	C245.370956,97.212997 244.161789,98.330482 244.182953,102.520271 
	C244.348053,135.181992 244.747681,167.853561 244.157516,200.505508 
	C243.275177,249.321823 288.854645,289.927704 341.447937,275.918274 
	C372.965637,267.522827 396.480408,237.123642 396.781128,203.282394 
	C397.081696,169.455902 396.867676,135.624802 396.861694,101.795731 
	C396.861450,100.505333 396.677887,99.214973 396.533173,97.311836 
	C392.377228,97.311836 388.427460,97.311836 383.485077,97.319962 
M477.285126,312.940033 
	C475.850494,313.030914 474.415863,313.121826 472.261169,313.258331 
	C472.261169,320.191498 472.261169,326.780334 472.261169,333.369202 
	C471.809265,333.439941 471.357391,333.510681 470.905487,333.581421 
	C468.688110,328.296967 466.077393,323.135834 464.370300,317.691376 
	C462.838257,312.805115 460.095398,312.141357 455.873657,313.417847 
	C455.873657,327.593658 455.873657,341.511963 455.873657,355.599731 
	C458.248840,355.599731 460.340393,355.599731 463.273987,355.599731 
	C463.273987,349.389923 463.273987,343.454010 463.273987,337.518066 
	C463.795959,337.426239 464.317902,337.334442 464.839874,337.242615 
	C466.728760,341.712433 468.962311,346.073608 470.414490,350.681061 
	C472.032104,355.813354 474.950958,357.047852 480.029114,355.155090 
	C480.029114,341.839691 480.060699,328.549622 479.948212,315.260742 
	C479.941681,314.487946 478.767120,313.725067 477.285126,312.940033 
M343.472595,321.594635 
	C343.472595,318.824921 343.472595,316.055206 343.472595,313.231293 
	C340.719543,313.231293 338.633362,313.231293 335.826294,313.231293 
	C335.826294,320.576630 335.826294,327.658356 335.826294,334.740082 
	C332.440857,329.139801 329.710052,323.586670 327.818420,317.761078 
	C326.270905,312.995270 323.678680,311.965363 319.286682,313.481934 
	C319.286682,327.524048 319.286682,341.445343 319.286682,355.623535 
	C321.648926,355.623535 323.731567,355.623535 326.524963,355.623535 
	C326.524963,348.943115 326.524963,342.473816 326.524963,336.004517 
	C326.945740,335.933777 327.366486,335.863037 327.787262,335.792328 
	C329.852753,340.780457 332.226471,345.668152 333.894684,350.785767 
	C335.476105,355.637238 338.259613,357.024567 343.473389,355.213196 
	C343.473389,344.477020 343.473389,333.524475 343.472595,321.594635 
M91.552048,339.675354 
	C91.450294,335.487732 94.620110,337.125305 96.544968,337.072021 
	C99.522102,336.989594 101.159729,338.772186 101.204674,341.754120 
	C101.273979,346.352112 101.222916,350.951904 101.222916,355.555969 
	C104.104851,355.555969 106.184555,355.555969 109.318466,355.555969 
	C108.678101,348.920227 108.025169,342.731812 107.513779,336.531738 
	C107.342125,334.450684 106.956459,332.121979 107.654961,330.280609 
	C110.600693,322.515259 106.813087,313.989594 99.319160,313.135529 
	C94.432953,312.578613 89.431755,313.030518 84.384491,313.030518 
	C84.384491,327.450226 84.384491,341.369049 84.384491,355.478760 
	C86.839912,355.478760 89.019577,355.478760 91.547729,355.478760 
	C91.547729,350.254028 91.547729,345.446930 91.552048,339.675354 
M541.129150,355.569885 
	C541.576477,349.428436 542.023865,343.286987 542.467529,337.196472 
	C550.944763,336.643677 551.708618,337.355927 551.713379,345.487549 
	C551.715332,348.778870 551.713745,352.070190 551.713745,355.410583 
	C554.416748,355.410583 556.597473,355.410583 558.881226,355.410583 
	C558.881226,349.950531 558.922119,344.970612 558.845703,339.992493 
	C558.830994,339.028931 558.576599,337.927704 558.055481,337.139465 
	C556.430725,334.682190 556.740723,332.582397 557.961121,329.891174 
	C561.237671,322.665955 557.106140,314.059784 549.868713,313.172821 
	C545.001404,312.576294 540.001770,313.059204 534.969971,313.059204 
	C534.969971,327.490051 534.969971,341.505707 534.969971,355.820557 
	C536.996216,355.820557 538.637939,355.820557 541.129150,355.569885 
M55.552338,342.769470 
	C56.690472,345.356384 57.810707,347.951385 58.970314,350.528625 
	C61.761482,356.732117 62.009563,356.839813 69.585739,355.086273 
	C66.287010,347.952393 63.158215,340.836395 59.701271,333.883545 
	C58.336269,331.138214 58.484467,329.037811 60.199825,326.558197 
	C63.096172,322.371429 65.693436,317.977783 68.488243,313.557587 
	C62.993820,311.723053 59.733776,313.448608 57.461258,318.009918 
	C56.125774,320.690430 54.191120,323.072388 52.525974,325.588654 
	C52.130478,325.436218 51.734982,325.283813 51.339485,325.131409 
	C51.339485,321.221771 51.339485,317.312134 51.339485,313.272583 
	C48.592628,313.272583 46.367165,313.272583 44.136082,313.272583 
	C44.136082,327.544403 44.136082,341.475220 44.136082,355.646729 
	C46.479588,355.646729 48.579285,355.646729 50.932434,355.646729 
	C51.201347,349.986694 51.460514,344.531769 51.719677,339.076813 
	C52.241474,339.014526 52.763268,338.952240 53.285061,338.889954 
	C53.907761,339.921722 54.530460,340.953461 55.552338,342.769470 
M145.186279,353.729492 
	C146.261978,351.701477 148.213608,349.696686 148.268051,347.641602 
	C148.570877,336.212616 148.413376,324.771454 148.413376,313.207703 
	C146.074478,313.207703 143.988800,313.207703 141.461288,313.207703 
	C141.461288,315.294128 141.461655,317.103455 141.461197,318.912750 
	C141.459045,327.245117 141.552155,335.579010 141.417206,343.909210 
	C141.340836,348.623230 138.566849,351.210236 134.968048,349.483856 
	C133.193588,348.632660 131.605957,345.492035 131.527832,343.329803 
	C131.167831,333.365875 131.369095,323.381653 131.369095,313.315918 
	C128.706070,313.315918 126.493690,313.315918 124.311142,313.315918 
	C124.176086,314.194550 124.035683,314.685211 124.034805,315.176147 
	C124.018013,324.508301 124.052727,333.840698 124.000031,343.172607 
	C123.971031,348.307312 125.115570,352.925293 130.057251,355.425995 
	C135.048019,357.951508 140.025253,357.621307 145.186279,353.729492 
M573.303406,323.576538 
	C573.208069,329.253387 576.505066,332.786865 580.899292,335.645416 
	C583.545471,337.366821 586.655518,338.712769 588.620483,341.023865 
	C589.912048,342.542908 590.259277,345.715057 589.623535,347.695740 
	C589.256592,348.839050 585.857849,349.934265 584.261780,349.487091 
	C582.790649,349.074921 581.743103,346.659851 580.826050,344.956360 
	C580.326843,344.029022 580.487000,342.746643 580.321045,341.389282 
	C578.017029,341.389282 575.954468,341.389282 573.949097,341.389282 
	C572.553467,348.537109 574.968506,353.846649 580.445068,356.086456 
	C586.206116,358.442566 592.919800,356.587860 596.033081,351.780151 
	C599.296509,346.740662 598.435974,339.792419 593.687378,335.420715 
	C591.507080,333.413452 588.836426,331.943146 586.416443,330.190247 
	C584.810608,329.027039 582.716797,328.094086 581.833069,326.506134 
	C581.002136,325.012970 580.681702,322.144257 581.572144,321.063965 
	C582.658325,319.746185 585.312500,319.052216 587.154724,319.262238 
	C588.376587,319.401581 589.656738,321.457581 590.366272,322.919800 
	C590.968750,324.161407 590.791565,325.781281 590.972229,327.345215 
	C593.321533,327.345215 595.387634,327.345215 597.401550,327.345215 
	C598.601013,319.009003 595.270447,313.249329 588.802307,312.050812 
	C580.484558,310.509552 575.228027,314.156128 573.303406,323.576538 
M298.684418,354.290619 
	C300.069519,351.040710 302.330597,347.875244 302.653931,344.522949 
	C303.290131,337.926941 302.939545,331.225677 302.832520,324.570618 
	C302.701599,316.432404 298.294617,311.936218 290.663116,311.918091 
	C282.932159,311.899719 278.422760,316.311096 278.239868,324.346252 
	C278.095978,330.667114 278.147430,336.994232 278.210052,343.317596 
	C278.326965,355.119110 287.459625,360.354553 298.684418,354.290619 
M359.975891,355.853485 
	C362.390198,355.610504 365.025452,356.871216 366.622528,353.160645 
	C367.072723,352.114624 373.978210,352.060120 374.463715,353.126251 
	C376.541779,357.689178 379.462402,355.474396 382.747314,355.490814 
	C380.442017,341.811859 378.318634,328.547577 375.915833,315.334137 
	C375.129456,311.009705 371.311920,313.184784 368.917908,313.121613 
	C367.630798,313.087616 365.383057,314.806396 365.125214,316.055573 
	C363.481140,324.021423 362.166077,332.061005 360.954193,340.108154 
	C360.177979,345.262634 359.764465,350.471710 359.975891,355.853485 
M248.016357,356.820618 
	C259.300049,357.099792 264.063049,352.085632 262.435028,341.334625 
	C260.398895,341.334625 258.322784,341.334625 255.970932,341.334625 
	C255.784622,343.013641 256.106934,344.826477 255.352509,345.829254 
	C254.146317,347.432526 252.212311,349.522339 250.610123,349.502045 
	C249.015259,349.481812 246.168701,347.189240 246.085815,345.764252 
	C245.642258,338.137177 245.682816,330.458527 246.097336,322.827026 
	C246.170227,321.485229 248.845612,319.237183 250.259644,319.282074 
	C252.012512,319.337677 254.076889,321.054291 255.293930,322.610748 
	C256.150818,323.706604 255.819595,325.731476 256.015625,327.315369 
	C258.433838,327.315369 260.506317,327.315369 262.529175,327.315369 
	C263.599518,318.104279 259.642242,312.362213 252.232635,311.928070 
	C243.200714,311.398804 238.393677,316.006104 238.310120,325.364349 
	C238.255157,331.521393 238.281555,337.679382 238.304031,343.836823 
	C238.327057,350.146240 240.812317,354.775848 248.016357,356.820618 
M505.554565,312.924438 
	C502.780426,312.924438 500.006287,312.924438 497.100891,312.924438 
	C497.100891,327.444916 497.100891,341.360535 497.100891,355.584045 
	C503.882294,355.584045 510.428497,355.584045 517.259094,355.584045 
	C517.259094,353.298462 517.259094,351.273621 517.259094,348.706055 
	C512.833313,348.706055 508.754425,348.706055 504.429810,348.706055 
	C504.429810,344.923462 504.429810,341.681763 504.429810,337.902802 
	C508.349640,337.902802 512.093384,337.902802 516.093262,337.902802 
	C516.093262,335.327698 516.093262,333.292480 516.093262,330.682129 
	C512.041687,330.682129 508.311676,330.682129 504.449921,330.682129 
	C504.449921,326.868286 504.449921,323.635498 504.449921,319.927734 
	C508.818787,319.927734 512.906128,319.927734 517.260376,319.927734 
	C517.260376,317.406494 517.260376,315.364410 517.260376,312.924896 
	C513.454529,312.924896 509.987671,312.924896 505.554565,312.924438 
M393.388184,319.616821 
	C395.953552,319.890289 398.518951,320.163757 401.537048,320.485443 
	C401.537048,332.421051 401.537048,343.987518 401.537048,355.598572 
	C404.127350,355.598572 406.211792,355.598572 408.976562,355.598572 
	C408.976562,343.622009 408.976562,331.942078 408.976562,320.230072 
	C412.066620,320.037476 414.478607,319.887146 417.065643,319.725891 
	C417.065643,317.364349 417.065643,315.419586 417.065643,313.199402 
	C409.013733,313.199402 401.126190,313.199402 393.042084,313.199402 
	C393.042084,315.290131 393.042084,317.093414 393.388184,319.616821 
M439.062958,321.648743 
	C439.062958,318.888062 439.062958,316.127350 439.062958,313.152100 
	C436.381287,313.152100 434.279907,313.152100 431.967224,313.152100 
	C431.967224,327.394531 431.967224,341.415802 431.967224,355.609497 
	C434.330933,355.609497 436.416168,355.609497 439.062653,355.609497 
	C439.062653,344.419495 439.062653,333.514679 439.062958,321.648743 
z"/>
<path fill="#303030" opacity="1.000000" stroke="none" 
	d="
M641.500000,512.000000 
	C641.000244,341.975098 641.000549,171.950180 641.000366,1.462638 
	C641.333313,2.333333 641.953125,3.665807 641.957153,5.000129 
	C642.018677,25.499945 642.000000,46.000000 642.000000,66.500000 
	C642.000000,215.000000 642.000000,363.500000 641.500000,512.000000 
z"/>
<path fill="#E6E6E6" opacity="1.000000" stroke="none" 
	d="
M383.981384,97.315903 
	C388.427460,97.311836 392.377228,97.311836 396.533173,97.311836 
	C396.677887,99.214973 396.861450,100.505333 396.861694,101.795731 
	C396.867676,135.624802 397.081696,169.455902 396.781128,203.282394 
	C396.480408,237.123642 372.965637,267.522827 341.447937,275.918274 
	C288.854645,289.927704 243.275177,249.321823 244.157516,200.505508 
	C244.747681,167.853561 244.348053,135.181992 244.182953,102.520271 
	C244.161789,98.330482 245.370956,97.212997 249.506393,97.226105 
	C294.165619,97.367622 338.825409,97.317627 383.981384,97.315903 
M340.434235,148.061996 
	C333.851379,141.794678 327.268524,135.527359 320.543549,129.124710 
	C311.391449,137.869858 302.601227,146.235962 293.873077,154.666351 
	C293.094543,155.418304 292.240143,156.582352 292.229675,157.563629 
	C292.113220,168.473434 292.156311,179.384918 292.156311,190.400131 
	C311.374298,190.400131 329.934082,190.400131 348.987213,190.400131 
	C348.987213,182.672256 348.456421,175.172195 349.129486,167.781769 
	C349.872437,159.624435 347.954102,153.145264 340.434235,148.061996 
M331.468872,224.104233 
	C330.493774,222.755386 329.554260,221.379089 328.538239,220.061813 
	C310.710999,196.949158 278.875275,189.577469 253.583618,202.544159 
	C250.642532,204.052017 249.167892,205.727036 249.818237,209.099304 
	C250.373535,211.978867 250.657166,214.910843 251.127426,218.298386 
	C270.733032,206.056122 290.181976,204.436752 308.876160,218.186417 
	C327.605621,231.962051 331.824799,251.000626 325.736267,273.515076 
	C328.470764,273.209900 330.710541,272.799347 332.959351,272.741974 
	C337.834137,272.617554 339.654419,270.190430 340.271423,265.381653 
	C342.144897,250.781311 339.661346,237.241180 331.468872,224.104233 
M322.363922,265.622620 
	C329.164459,231.971191 297.420593,205.733231 266.218323,216.171814 
	C252.651382,220.710571 251.090576,224.290680 257.992188,236.078613 
	C258.123596,236.303009 258.492523,236.388336 258.741791,236.533417 
	C273.444427,225.857224 286.323578,224.780853 297.554749,233.276520 
	C309.480286,242.297409 312.007965,254.158020 305.746460,271.714264 
	C316.443909,275.653992 320.033325,274.504211 322.363922,265.622620 
M331.064453,102.438362 
	C328.945862,103.530937 326.418335,104.197617 324.770264,105.780174 
	C301.116028,128.493942 277.724915,151.484070 253.898087,174.013885 
	C248.930923,178.710663 249.026199,183.493927 249.997330,190.050232 
	C280.014923,160.869629 309.460510,132.245102 338.906067,103.620567 
	C338.698120,103.226006 338.490143,102.831436 338.282166,102.436874 
	C336.156860,102.436874 334.031555,102.436874 331.064453,102.438362 
M291.952209,267.749176 
	C293.503357,268.347900 295.108948,268.836395 296.593414,269.570099 
	C299.098969,270.808441 300.500305,269.947205 301.747101,267.607483 
	C307.073120,257.612671 304.170837,244.770325 294.847717,237.651260 
	C285.895294,230.815231 272.484283,231.375183 264.475922,238.758652 
	C262.074127,240.973022 261.794006,242.697800 263.953522,245.392731 
	C271.461395,254.762009 280.292023,262.389740 291.952209,267.749176 
M348.501831,196.427383 
	C335.588654,196.427383 322.675476,196.427383 308.617096,196.427383 
	C313.610199,199.945694 317.474548,203.002945 321.671600,205.501282 
	C324.210022,207.012329 327.251984,208.511169 330.088776,208.552048 
	C348.748352,208.820923 367.413666,208.700394 386.077057,208.677673 
	C387.835815,208.675537 389.594330,208.471359 391.358246,208.360672 
	C391.358246,204.043655 391.358246,200.321243 391.358246,196.427200 
	C377.122375,196.427200 363.312286,196.427200 348.501831,196.427383 
M263.405762,157.904114 
	C282.173218,139.809418 300.940674,121.714722 320.554047,102.804420 
	C313.725433,102.151123 309.008270,102.065529 304.362854,106.706047 
	C287.978088,123.073555 271.282715,139.148621 254.229919,154.817398 
	C249.220261,159.420471 249.014023,164.166016 249.828796,171.035080 
	C254.639923,166.383347 258.769440,162.390656 263.405762,157.904114 
M342.723633,142.776825 
	C358.725861,158.333191 374.728119,173.889542 391.179565,189.882599 
	C392.718536,182.762283 391.216583,178.255066 386.477478,173.824203 
	C368.350342,156.875961 350.685760,139.433167 332.834778,122.189156 
	C331.920776,121.306221 330.879944,120.554634 330.398743,120.156303 
	C328.185028,121.726440 326.319336,123.049728 325.193451,123.848297 
	C331.182404,130.343430 336.693939,136.320755 342.723633,142.776825 
M343.513855,213.750595 
	C339.497040,213.750595 335.480255,213.750595 330.791656,213.750595 
	C333.786133,218.397751 336.003662,222.103516 338.526947,225.587845 
	C339.247833,226.583252 340.850098,227.489044 342.056793,227.500137 
	C356.049194,227.628723 370.044647,227.667007 384.034637,227.440811 
	C385.488983,227.417313 387.639008,225.840286 388.205200,224.464966 
	C389.503967,221.310074 390.023590,217.834427 391.044037,213.750534 
	C375.069611,213.750534 359.789185,213.750534 343.513855,213.750595 
M346.564667,116.918358 
	C344.289795,114.751106 342.014954,112.583847 340.300659,110.950653 
	C337.897888,112.672729 335.806915,114.171364 333.467102,115.848328 
	C353.027771,134.689331 371.940186,152.905899 391.111053,171.371445 
	C393.143066,163.717590 390.800964,158.954575 385.689819,154.311035 
	C372.516876,142.343216 359.905396,129.757355 346.564667,116.918358 
M259.921844,130.420807 
	C257.647736,132.618149 255.362946,134.804535 253.101852,137.015182 
	C248.943619,141.080688 248.143463,145.366974 250.617783,151.476334 
	C267.374756,135.445496 284.013245,119.527977 301.371399,102.922020 
	C294.275940,102.167656 288.897888,101.544693 283.998779,106.911903 
	C276.607788,115.009102 268.332611,122.299263 259.921844,130.420807 
M352.147125,115.359802 
	C365.027832,127.666710 377.908539,139.973618 391.379608,152.844604 
	C392.308716,141.757950 392.314331,141.752151 385.472473,135.125580 
	C375.298645,125.271927 365.119354,115.423897 354.935547,105.580582 
	C350.115601,100.921814 347.878387,101.131119 343.354004,107.232826 
	C346.051392,109.722168 348.840485,112.296127 352.147125,115.359802 
M284.185181,190.796600 
	C285.127502,189.823257 286.784424,188.916611 286.882599,187.864517 
	C287.221588,184.231689 287.018372,180.548157 287.019318,176.883926 
	C287.020538,172.030228 287.019623,167.176514 287.019623,162.322815 
	C286.301910,161.930954 285.584167,161.539108 284.866455,161.147247 
	C273.767517,173.332153 262.668549,185.517044 253.546417,195.531723 
	C261.478851,194.265015 272.361084,192.527252 284.185181,190.796600 
M361.500610,232.657257 
	C355.109680,232.657257 348.718750,232.657257 342.032867,232.657257 
	C343.364319,237.737259 344.483826,242.008591 345.655457,246.478882 
	C353.387848,246.478882 360.871613,246.480453 368.355377,246.478470 
	C377.122345,246.476151 382.258728,242.060318 383.979187,232.657181 
	C376.767365,232.657181 369.633820,232.657181 361.500610,232.657257 
M354.105743,181.433395 
	C354.105743,184.504257 354.105743,187.575134 354.105743,190.497421 
	C364.359436,190.497421 373.795593,190.497421 380.651428,190.497421 
	C372.814240,181.818954 364.005768,172.064941 355.197327,162.310928 
	C354.833466,162.461609 354.469574,162.612289 354.105713,162.762970 
	C354.105713,168.658310 354.105713,174.553665 354.105743,181.433395 
M365.549927,108.942078 
	C373.978699,116.993599 382.407501,125.045120 391.173309,133.418579 
	C392.761139,127.212135 391.517517,123.051498 387.156860,119.396744 
	C382.203979,115.245689 377.564545,110.651375 373.232971,105.849152 
	C369.399078,101.598640 365.098877,102.081497 359.550751,104.188393 
	C361.380096,105.609962 363.209412,107.031540 365.549927,108.942078 
M262.323547,110.823936 
	C259.110565,113.942207 256.071991,117.270164 252.639771,120.124863 
	C248.488922,123.577309 249.056320,127.638847 250.076981,132.860779 
	C260.578766,122.736603 270.513031,113.159569 280.652832,103.384384 
	C271.750122,99.572380 267.624756,105.746437 262.323547,110.823936 
M347.572327,251.595352 
	C347.040955,252.091766 346.058594,252.578506 346.047699,253.086105 
	C345.934662,258.347565 345.978180,263.612396 345.978180,269.007721 
	C355.151123,265.627563 363.535339,260.221985 371.591522,251.566742 
	C362.997742,251.566742 355.778748,251.566742 347.572327,251.595352 
M378.737518,102.482002 
	C382.592896,107.105049 386.448303,111.728096 390.303711,116.351135 
	C390.713623,116.042839 391.123566,115.734535 391.533508,115.426239 
	C391.533508,111.268974 391.533508,107.111710 391.533508,102.346756 
	C387.337677,102.346756 383.425903,102.346756 378.737518,102.482002 
M257.332520,108.840340 
	C259.395508,107.280525 261.458527,105.720711 263.521515,104.160904 
	C263.132263,103.544891 262.743011,102.928886 262.353729,102.312874 
	C258.800964,102.312874 255.235886,102.153992 251.704391,102.428024 
	C250.854156,102.493996 249.506866,103.945549 249.433762,104.844894 
	C249.161728,108.191811 249.325211,111.574120 249.325211,116.441460 
	C252.583420,113.344246 254.696777,111.335327 257.332520,108.840340 
z"/>
<path fill="#EDEDED" opacity="1.000000" stroke="none" 
	d="
M477.710632,312.948792 
	C478.767120,313.725067 479.941681,314.487946 479.948212,315.260742 
	C480.060699,328.549622 480.029114,341.839691 480.029114,355.155090 
	C474.950958,357.047852 472.032104,355.813354 470.414490,350.681061 
	C468.962311,346.073608 466.728760,341.712433 464.839874,337.242615 
	C464.317902,337.334442 463.795959,337.426239 463.273987,337.518066 
	C463.273987,343.454010 463.273987,349.389923 463.273987,355.599731 
	C460.340393,355.599731 458.248840,355.599731 455.873657,355.599731 
	C455.873657,341.511963 455.873657,327.593658 455.873657,313.417847 
	C460.095398,312.141357 462.838257,312.805115 464.370300,317.691376 
	C466.077393,323.135834 468.688110,328.296967 470.905487,333.581421 
	C471.357391,333.510681 471.809265,333.439941 472.261169,333.369202 
	C472.261169,326.780334 472.261169,320.191498 472.261169,313.258331 
	C474.415863,313.121826 475.850494,313.030914 477.710632,312.948792 
z"/>
<path fill="#EFEFEF" opacity="1.000000" stroke="none" 
	d="
M175.026413,318.001038 
	C175.445709,319.330200 175.864990,320.659393 176.278687,322.699951 
	C177.712692,328.073303 179.152267,332.735199 180.591858,337.397125 
	C181.053360,337.305389 181.514862,337.213684 181.976364,337.121979 
	C182.148346,336.294800 182.320328,335.467590 182.492310,334.640381 
	C182.584503,334.273499 182.676712,333.906586 183.152985,333.054688 
	C183.840088,330.928192 184.143143,329.286713 184.446198,327.645264 
	C184.541168,327.277924 184.636139,326.910553 185.116119,326.057556 
	C185.826813,323.932404 186.152496,322.292877 186.478180,320.653381 
	C186.561005,320.284882 186.643814,319.916382 187.090408,319.066986 
	C188.014465,316.787262 188.574768,314.988434 189.135071,313.189606 
	C191.927765,313.189606 194.720474,313.189606 198.350204,313.189606 
	C198.350204,326.858765 198.350204,340.512726 197.759918,354.642822 
	C195.560715,355.118958 193.951797,355.118958 191.464920,355.118958 
	C191.464920,347.287476 191.464920,339.888306 191.464920,332.489166 
	C190.881760,332.431061 190.298615,332.372986 189.715454,332.314880 
	C187.978409,339.324646 186.241348,346.334381 184.504272,353.344116 
	C184.388718,353.703674 184.273163,354.063202 183.646088,354.712463 
	C181.847031,354.940399 180.559509,354.878693 179.271988,354.816986 
	C178.742477,353.224854 178.212967,351.632751 177.716751,349.320465 
	C176.801605,346.065643 175.853149,343.530945 174.904709,340.996277 
	C174.719650,340.436707 174.534592,339.877136 174.360779,338.670593 
	C173.946960,336.832184 173.521912,335.640747 173.096848,334.449341 
	C172.690567,334.542877 172.284302,334.636414 171.878021,334.729950 
	C171.971542,336.200745 172.065063,337.671509 172.158569,339.142303 
	C172.156906,344.116302 172.155228,349.090332 171.610809,354.570190 
	C169.466782,355.076050 167.865463,355.076050 166.046524,355.076050 
	C166.046524,340.806000 166.046524,326.933624 166.046524,313.061279 
	C168.048553,313.035492 170.050598,313.009735 172.535095,313.401978 
	C173.687195,315.213684 174.356796,316.607361 175.026413,318.001038 
z"/>
<path fill="#F0F0F0" opacity="1.000000" stroke="none" 
	d="
M343.472992,322.083282 
	C343.473389,333.524475 343.473389,344.477020 343.473389,355.213196 
	C338.259613,357.024567 335.476105,355.637238 333.894684,350.785767 
	C332.226471,345.668152 329.852753,340.780457 327.787262,335.792328 
	C327.366486,335.863037 326.945740,335.933777 326.524963,336.004517 
	C326.524963,342.473816 326.524963,348.943115 326.524963,355.623535 
	C323.731567,355.623535 321.648926,355.623535 319.286682,355.623535 
	C319.286682,341.445343 319.286682,327.524048 319.286682,313.481934 
	C323.678680,311.965363 326.270905,312.995270 327.818420,317.761078 
	C329.710052,323.586670 332.440857,329.139801 335.826294,334.740082 
	C335.826294,327.658356 335.826294,320.576630 335.826294,313.231293 
	C338.633362,313.231293 340.719543,313.231293 343.472595,313.231293 
	C343.472595,316.055206 343.472595,318.824921 343.472992,322.083282 
z"/>
<path fill="#E8E8E8" opacity="1.000000" stroke="none" 
	d="
M91.549889,340.157593 
	C91.547729,345.446930 91.547729,350.254028 91.547729,355.478760 
	C89.019577,355.478760 86.839912,355.478760 84.384491,355.478760 
	C84.384491,341.369049 84.384491,327.450226 84.384491,313.030518 
	C89.431755,313.030518 94.432953,312.578613 99.319160,313.135529 
	C106.813087,313.989594 110.600693,322.515259 107.654961,330.280609 
	C106.956459,332.121979 107.342125,334.450684 107.513779,336.531738 
	C108.025169,342.731812 108.678101,348.920227 109.318466,355.555969 
	C106.184555,355.555969 104.104851,355.555969 101.222916,355.555969 
	C101.222916,350.951904 101.273979,346.352112 101.204674,341.754120 
	C101.159729,338.772186 99.522102,336.989594 96.544968,337.072021 
	C94.620110,337.125305 91.450294,335.487732 91.549889,340.157593 
M98.024384,329.859192 
	C101.884705,328.546021 102.041397,325.344849 100.861046,322.519806 
	C99.016083,318.104095 95.080711,320.332520 91.826477,320.185059 
	C91.826477,323.605286 91.826477,326.653809 91.826477,329.954681 
	C93.868729,329.954681 95.518517,329.954681 98.024384,329.859192 
z"/>
<path fill="#EDEDED" opacity="1.000000" stroke="none" 
	d="
M540.704407,355.695221 
	C538.637939,355.820557 536.996216,355.820557 534.969971,355.820557 
	C534.969971,341.505707 534.969971,327.490051 534.969971,313.059204 
	C540.001770,313.059204 545.001404,312.576294 549.868713,313.172821 
	C557.106140,314.059784 561.237671,322.665955 557.961121,329.891174 
	C556.740723,332.582397 556.430725,334.682190 558.055481,337.139465 
	C558.576599,337.927704 558.830994,339.028931 558.845703,339.992493 
	C558.922119,344.970612 558.881226,349.950531 558.881226,355.410583 
	C556.597473,355.410583 554.416748,355.410583 551.713745,355.410583 
	C551.713745,352.070190 551.715332,348.778870 551.713379,345.487549 
	C551.708618,337.355927 550.944763,336.643677 542.467529,337.196472 
	C542.023865,343.286987 541.576477,349.428436 540.704407,355.695221 
M544.499695,329.973358 
	C546.786133,329.105804 549.654053,328.778564 551.145996,327.172821 
	C552.076050,326.171875 551.627441,322.039124 550.567444,321.420837 
	C548.279480,320.086273 545.198730,320.110992 540.758545,319.254913 
	C541.987549,323.860443 542.800110,326.905670 544.499695,329.973358 
z"/>
<path fill="#EDEDED" opacity="1.000000" stroke="none" 
	d="
M55.352749,342.377350 
	C54.530460,340.953461 53.907761,339.921722 53.285061,338.889954 
	C52.763268,338.952240 52.241474,339.014526 51.719677,339.076813 
	C51.460514,344.531769 51.201347,349.986694 50.932434,355.646729 
	C48.579285,355.646729 46.479588,355.646729 44.136082,355.646729 
	C44.136082,341.475220 44.136082,327.544403 44.136082,313.272583 
	C46.367165,313.272583 48.592628,313.272583 51.339485,313.272583 
	C51.339485,317.312134 51.339485,321.221771 51.339485,325.131409 
	C51.734982,325.283813 52.130478,325.436218 52.525974,325.588654 
	C54.191120,323.072388 56.125774,320.690430 57.461258,318.009918 
	C59.733776,313.448608 62.993820,311.723053 68.488243,313.557587 
	C65.693436,317.977783 63.096172,322.371429 60.199825,326.558197 
	C58.484467,329.037811 58.336269,331.138214 59.701271,333.883545 
	C63.158215,340.836395 66.287010,347.952393 69.585739,355.086273 
	C62.009563,356.839813 61.761482,356.732117 58.970314,350.528625 
	C57.810707,347.951385 56.690472,345.356384 55.352749,342.377350 
z"/>
<path fill="#E9E9E9" opacity="1.000000" stroke="none" 
	d="
M144.917221,353.988495 
	C140.025253,357.621307 135.048019,357.951508 130.057251,355.425995 
	C125.115570,352.925293 123.971031,348.307312 124.000031,343.172607 
	C124.052727,333.840698 124.018013,324.508301 124.034805,315.176147 
	C124.035683,314.685211 124.176086,314.194550 124.311142,313.315918 
	C126.493690,313.315918 128.706070,313.315918 131.369095,313.315918 
	C131.369095,323.381653 131.167831,333.365875 131.527832,343.329803 
	C131.605957,345.492035 133.193588,348.632660 134.968048,349.483856 
	C138.566849,351.210236 141.340836,348.623230 141.417206,343.909210 
	C141.552155,335.579010 141.459045,327.245117 141.461197,318.912750 
	C141.461655,317.103455 141.461288,315.294128 141.461288,313.207703 
	C143.988800,313.207703 146.074478,313.207703 148.413376,313.207703 
	C148.413376,324.771454 148.570877,336.212616 148.268051,347.641602 
	C148.213608,349.696686 146.261978,351.701477 144.917221,353.988495 
z"/>
<path fill="#E8E8E8" opacity="1.000000" stroke="none" 
	d="
M573.325073,323.174652 
	C575.228027,314.156128 580.484558,310.509552 588.802307,312.050812 
	C595.270447,313.249329 598.601013,319.009003 597.401550,327.345215 
	C595.387634,327.345215 593.321533,327.345215 590.972229,327.345215 
	C590.791565,325.781281 590.968750,324.161407 590.366272,322.919800 
	C589.656738,321.457581 588.376587,319.401581 587.154724,319.262238 
	C585.312500,319.052216 582.658325,319.746185 581.572144,321.063965 
	C580.681702,322.144257 581.002136,325.012970 581.833069,326.506134 
	C582.716797,328.094086 584.810608,329.027039 586.416443,330.190247 
	C588.836426,331.943146 591.507080,333.413452 593.687378,335.420715 
	C598.435974,339.792419 599.296509,346.740662 596.033081,351.780151 
	C592.919800,356.587860 586.206116,358.442566 580.445068,356.086456 
	C574.968506,353.846649 572.553467,348.537109 573.949097,341.389282 
	C575.954468,341.389282 578.017029,341.389282 580.321045,341.389282 
	C580.487000,342.746643 580.326843,344.029022 580.826050,344.956360 
	C581.743103,346.659851 582.790649,349.074921 584.261780,349.487091 
	C585.857849,349.934265 589.256592,348.839050 589.623535,347.695740 
	C590.259277,345.715057 589.912048,342.542908 588.620483,341.023865 
	C586.655518,338.712769 583.545471,337.366821 580.899292,335.645416 
	C576.505066,332.786865 573.208069,329.253387 573.325073,323.174652 
z"/>
<path fill="#E9E9E9" opacity="1.000000" stroke="none" 
	d="
M298.392242,354.527588 
	C287.459625,360.354553 278.326965,355.119110 278.210052,343.317596 
	C278.147430,336.994232 278.095978,330.667114 278.239868,324.346252 
	C278.422760,316.311096 282.932159,311.899719 290.663116,311.918091 
	C298.294617,311.936218 302.701599,316.432404 302.832520,324.570618 
	C302.939545,331.225677 303.290131,337.926941 302.653931,344.522949 
	C302.330597,347.875244 300.069519,351.040710 298.392242,354.527588 
M295.601593,329.668823 
	C295.594116,327.835968 295.624481,326.002014 295.570892,324.170502 
	C295.474640,320.880524 294.225769,318.837341 290.460785,318.908447 
	C286.671326,318.979980 285.596588,321.091797 285.605621,324.384430 
	C285.623962,331.049438 285.627838,337.714600 285.599060,344.379547 
	C285.584808,347.681274 286.690247,349.830872 290.438782,349.897491 
	C294.130219,349.963043 295.526917,347.956635 295.564240,344.623413 
	C295.616516,339.958435 295.592163,335.292603 295.601593,329.668823 
z"/>
<path fill="#EDEDED" opacity="1.000000" stroke="none" 
	d="
M359.582092,355.754883 
	C359.764465,350.471710 360.177979,345.262634 360.954193,340.108154 
	C362.166077,332.061005 363.481140,324.021423 365.125214,316.055573 
	C365.383057,314.806396 367.630798,313.087616 368.917908,313.121613 
	C371.311920,313.184784 375.129456,311.009705 375.915833,315.334137 
	C378.318634,328.547577 380.442017,341.811859 382.747314,355.490814 
	C379.462402,355.474396 376.541779,357.689178 374.463715,353.126251 
	C373.978210,352.060120 367.072723,352.114624 366.622528,353.160645 
	C365.025452,356.871216 362.390198,355.610504 359.582092,355.754883 
M371.069672,333.388763 
	C370.367523,333.308258 369.665405,333.227753 368.963226,333.147247 
	C368.555084,336.881653 368.146912,340.616058 367.716797,344.551544 
	C369.708160,344.551544 371.387329,344.551544 373.837769,344.551544 
	C372.841156,340.752777 371.988342,337.502075 371.069672,333.388763 
z"/>
<path fill="#E5E5E5" opacity="1.000000" stroke="none" 
	d="
M247.611206,356.752136 
	C240.812317,354.775848 238.327057,350.146240 238.304031,343.836823 
	C238.281555,337.679382 238.255157,331.521393 238.310120,325.364349 
	C238.393677,316.006104 243.200714,311.398804 252.232635,311.928070 
	C259.642242,312.362213 263.599518,318.104279 262.529175,327.315369 
	C260.506317,327.315369 258.433838,327.315369 256.015625,327.315369 
	C255.819595,325.731476 256.150818,323.706604 255.293930,322.610748 
	C254.076889,321.054291 252.012512,319.337677 250.259644,319.282074 
	C248.845612,319.237183 246.170227,321.485229 246.097336,322.827026 
	C245.682816,330.458527 245.642258,338.137177 246.085815,345.764252 
	C246.168701,347.189240 249.015259,349.481812 250.610123,349.502045 
	C252.212311,349.522339 254.146317,347.432526 255.352509,345.829254 
	C256.106934,344.826477 255.784622,343.013641 255.970932,341.334625 
	C258.322784,341.334625 260.398895,341.334625 262.435028,341.334625 
	C264.063049,352.085632 259.300049,357.099792 247.611206,356.752136 
z"/>
<path fill="#ECECEC" opacity="1.000000" stroke="none" 
	d="
M506.037659,312.924683 
	C509.987671,312.924896 513.454529,312.924896 517.260376,312.924896 
	C517.260376,315.364410 517.260376,317.406494 517.260376,319.927734 
	C512.906128,319.927734 508.818787,319.927734 504.449921,319.927734 
	C504.449921,323.635498 504.449921,326.868286 504.449921,330.682129 
	C508.311676,330.682129 512.041687,330.682129 516.093262,330.682129 
	C516.093262,333.292480 516.093262,335.327698 516.093262,337.902802 
	C512.093384,337.902802 508.349640,337.902802 504.429810,337.902802 
	C504.429810,341.681763 504.429810,344.923462 504.429810,348.706055 
	C508.754425,348.706055 512.833313,348.706055 517.259094,348.706055 
	C517.259094,351.273621 517.259094,353.298462 517.259094,355.584045 
	C510.428497,355.584045 503.882294,355.584045 497.100891,355.584045 
	C497.100891,341.360535 497.100891,327.444916 497.100891,312.924438 
	C500.006287,312.924438 502.780426,312.924438 506.037659,312.924683 
z"/>
<path fill="#E5E5E5" opacity="1.000000" stroke="none" 
	d="
M393.215149,319.256744 
	C393.042084,317.093414 393.042084,315.290131 393.042084,313.199402 
	C401.126190,313.199402 409.013733,313.199402 417.065643,313.199402 
	C417.065643,315.419586 417.065643,317.364349 417.065643,319.725891 
	C414.478607,319.887146 412.066620,320.037476 408.976562,320.230072 
	C408.976562,331.942078 408.976562,343.622009 408.976562,355.598572 
	C406.211792,355.598572 404.127350,355.598572 401.537048,355.598572 
	C401.537048,343.987518 401.537048,332.421051 401.537048,320.485443 
	C398.518951,320.163757 395.953552,319.890289 393.215149,319.256744 
z"/>
<path fill="#ECECEC" opacity="1.000000" stroke="none" 
	d="
M439.062805,322.129272 
	C439.062653,333.514679 439.062653,344.419495 439.062653,355.609497 
	C436.416168,355.609497 434.330933,355.609497 431.967224,355.609497 
	C431.967224,341.415802 431.967224,327.394531 431.967224,313.152100 
	C434.279907,313.152100 436.381287,313.152100 439.062958,313.152100 
	C439.062958,316.127350 439.062958,318.888062 439.062805,322.129272 
z"/>
<path fill="#858585" opacity="1.000000" stroke="none" 
	d="
M165.642517,313.061646 
	C166.046524,326.933624 166.046524,340.806000 166.046524,355.076050 
	C167.865463,355.076050 169.466782,355.076050 171.521515,355.027832 
	C167.040787,357.812653 164.362457,356.708771 164.343307,351.740906 
	C164.298386,340.082611 164.301605,328.423889 164.368576,316.765808 
	C164.375671,315.529572 164.935257,314.296539 165.642517,313.061646 
z"/>
<path fill="#858585" opacity="1.000000" stroke="none" 
	d="
M184.787292,353.151855 
	C186.241348,346.334381 187.978409,339.324646 189.715454,332.314880 
	C190.298615,332.372986 190.881760,332.431061 191.464920,332.489166 
	C191.464920,339.888306 191.464920,347.287476 191.464920,355.118958 
	C193.951797,355.118958 195.560715,355.118958 197.629974,355.101532 
	C192.634384,357.821808 190.511047,356.754364 190.435257,351.230835 
	C190.389832,347.920898 190.363602,344.610596 190.295242,341.301178 
	C190.289032,341.000519 190.037659,340.704926 189.411118,339.347473 
	C187.795288,344.414490 186.432800,348.687042 184.787292,353.151855 
z"/>
<path fill="#858585" opacity="1.000000" stroke="none" 
	d="
M182.146790,334.669861 
	C182.320328,335.467590 182.148346,336.294800 181.976364,337.121979 
	C181.514862,337.213684 181.053360,337.305389 180.591858,337.397125 
	C179.152267,332.735199 177.712692,328.073303 176.382690,323.032349 
	C178.261948,326.668701 180.031616,330.684021 182.146790,334.669861 
z"/>
<path fill="#858585" opacity="1.000000" stroke="none" 
	d="
M174.767105,341.264282 
	C175.853149,343.530945 176.801605,346.065643 177.633316,348.969788 
	C176.554230,346.736938 175.591873,344.134644 174.767105,341.264282 
z"/>
<path fill="#858585" opacity="1.000000" stroke="none" 
	d="
M188.806381,313.211060 
	C188.574768,314.988434 188.014465,316.787262 187.175568,318.796783 
	C187.423874,317.082489 187.950775,315.157501 188.806381,313.211060 
z"/>
<path fill="#858585" opacity="1.000000" stroke="none" 
	d="
M179.277771,355.140869 
	C180.559509,354.878693 181.847031,354.940399 183.525909,354.968933 
	C182.372696,355.112091 180.828125,355.288422 179.277771,355.140869 
z"/>
<path fill="#858585" opacity="1.000000" stroke="none" 
	d="
M186.219101,320.817871 
	C186.152496,322.292877 185.826813,323.932404 185.210007,325.788818 
	C185.265930,324.331268 185.612976,322.656830 186.219101,320.817871 
z"/>
<path fill="#858585" opacity="1.000000" stroke="none" 
	d="
M172.499023,339.056152 
	C172.065063,337.671509 171.971542,336.200745 171.878021,334.729950 
	C172.284302,334.636414 172.690567,334.542877 173.096848,334.449341 
	C173.521912,335.640747 173.946960,336.832184 174.283142,338.386230 
	C173.742661,338.822571 173.291077,338.896301 172.499023,339.056152 
z"/>
<path fill="#858585" opacity="1.000000" stroke="none" 
	d="
M184.198608,327.822998 
	C184.143143,329.286713 183.840088,330.928192 183.245682,332.786469 
	C183.286575,331.335754 183.618805,329.668243 184.198608,327.822998 
z"/>
<path fill="#858585" opacity="1.000000" stroke="none" 
	d="
M175.176834,317.750977 
	C174.356796,316.607361 173.687195,315.213684 172.956619,313.483093 
	C173.706192,314.597748 174.516724,316.049316 175.176834,317.750977 
z"/>
<path fill="#070707" opacity="1.000000" stroke="none" 
	d="
M340.685974,148.309418 
	C347.954102,153.145264 349.872437,159.624435 349.129486,167.781769 
	C348.456421,175.172195 348.987213,182.672256 348.987213,190.400131 
	C329.934082,190.400131 311.374298,190.400131 292.156311,190.400131 
	C292.156311,179.384918 292.113220,168.473434 292.229675,157.563629 
	C292.240143,156.582352 293.094543,155.418304 293.873077,154.666351 
	C302.601227,146.235962 311.391449,137.869858 320.543549,129.124710 
	C327.268524,135.527359 333.851379,141.794678 340.685974,148.309418 
M310.805939,167.706894 
	C310.555511,168.494507 310.305084,169.282120 309.977783,170.964798 
	C309.977783,173.207764 309.977783,175.450745 309.977783,178.009995 
	C311.629761,178.009995 312.785004,177.854614 313.884369,178.036713 
	C318.807159,178.852173 320.444794,176.586639 319.713165,172.000732 
	C319.585022,171.197662 319.390167,170.405212 319.285797,168.993774 
	C319.227570,168.388092 319.169312,167.782410 319.507477,166.540253 
	C319.507477,163.968185 319.507477,161.396103 319.507477,158.615158 
	C316.390503,158.615158 313.819641,158.615158 310.947876,158.615158 
	C310.947876,161.600815 310.947876,164.338425 310.805939,167.706894 
M330.575897,166.577408 
	C330.575897,163.999420 330.575897,161.421432 330.575897,158.765717 
	C327.362274,158.765717 324.685516,158.765717 321.967438,158.765717 
	C321.967438,161.799622 321.967438,164.422775 321.835266,167.683105 
	C321.572937,168.475754 321.310577,169.268402 320.976166,170.941803 
	C320.965637,172.259018 321.049622,173.585175 320.926178,174.891724 
	C320.610199,178.234924 322.261902,179.197891 325.350037,179.068359 
	C328.352814,178.942398 331.058563,178.833420 330.807190,174.735901 
	C330.716553,173.258362 330.744720,171.773529 330.840515,169.659897 
	C330.607117,168.850266 330.373718,168.040649 330.575897,166.577408 
z"/>
<path fill="#0B0B0B" opacity="1.000000" stroke="none" 
	d="
M331.663330,224.412643 
	C339.661346,237.241180 342.144897,250.781311 340.271423,265.381653 
	C339.654419,270.190430 337.834137,272.617554 332.959351,272.741974 
	C330.710541,272.799347 328.470764,273.209900 325.736267,273.515076 
	C331.824799,251.000626 327.605621,231.962051 308.876160,218.186417 
	C290.181976,204.436752 270.733032,206.056122 251.127426,218.298386 
	C250.657166,214.910843 250.373535,211.978867 249.818237,209.099304 
	C249.167892,205.727036 250.642532,204.052017 253.583618,202.544159 
	C278.875275,189.577469 310.710999,196.949158 328.538239,220.061813 
	C329.554260,221.379089 330.493774,222.755386 331.663330,224.412643 
z"/>
<path fill="#0B0B0B" opacity="1.000000" stroke="none" 
	d="
M322.250183,266.043304 
	C320.033325,274.504211 316.443909,275.653992 305.746460,271.714264 
	C312.007965,254.158020 309.480286,242.297409 297.554749,233.276520 
	C286.323578,224.780853 273.444427,225.857224 258.741791,236.533417 
	C258.492523,236.388336 258.123596,236.303009 257.992188,236.078613 
	C251.090576,224.290680 252.651382,220.710571 266.218323,216.171814 
	C297.420593,205.733231 329.164459,231.971191 322.250183,266.043304 
z"/>
<path fill="#121212" opacity="1.000000" stroke="none" 
	d="
M331.485352,102.437622 
	C334.031555,102.436874 336.156860,102.436874 338.282166,102.436874 
	C338.490143,102.831436 338.698120,103.226006 338.906067,103.620567 
	C309.460510,132.245102 280.014923,160.869629 249.997330,190.050232 
	C249.026199,183.493927 248.930923,178.710663 253.898087,174.013885 
	C277.724915,151.484070 301.116028,128.493942 324.770264,105.780174 
	C326.418335,104.197617 328.945862,103.530937 331.485352,102.437622 
z"/>
<path fill="#070707" opacity="1.000000" stroke="none" 
	d="
M291.613098,267.573730 
	C280.292023,262.389740 271.461395,254.762009 263.953522,245.392731 
	C261.794006,242.697800 262.074127,240.973022 264.475922,238.758652 
	C272.484283,231.375183 285.895294,230.815231 294.847717,237.651260 
	C304.170837,244.770325 307.073120,257.612671 301.747101,267.607483 
	C300.500305,269.947205 299.098969,270.808441 296.593414,269.570099 
	C295.108948,268.836395 293.503357,268.347900 291.613098,267.573730 
z"/>
<path fill="#141414" opacity="1.000000" stroke="none" 
	d="
M349.002014,196.427292 
	C363.312286,196.427200 377.122375,196.427200 391.358246,196.427200 
	C391.358246,200.321243 391.358246,204.043655 391.358246,208.360672 
	C389.594330,208.471359 387.835815,208.675537 386.077057,208.677673 
	C367.413666,208.700394 348.748352,208.820923 330.088776,208.552048 
	C327.251984,208.511169 324.210022,207.012329 321.671600,205.501282 
	C317.474548,203.002945 313.610199,199.945694 308.617096,196.427383 
	C322.675476,196.427383 335.588654,196.427383 349.002014,196.427292 
z"/>
<path fill="#141414" opacity="1.000000" stroke="none" 
	d="
M263.152344,158.151047 
	C258.769440,162.390656 254.639923,166.383347 249.828796,171.035080 
	C249.014023,164.166016 249.220261,159.420471 254.229919,154.817398 
	C271.282715,139.148621 287.978088,123.073555 304.362854,106.706047 
	C309.008270,102.065529 313.725433,102.151123 320.554047,102.804420 
	C300.940674,121.714722 282.173218,139.809418 263.152344,158.151047 
z"/>
<path fill="#121212" opacity="1.000000" stroke="none" 
	d="
M342.464539,142.537445 
	C336.693939,136.320755 331.182404,130.343430 325.193451,123.848297 
	C326.319336,123.049728 328.185028,121.726440 330.398743,120.156303 
	C330.879944,120.554634 331.920776,121.306221 332.834778,122.189156 
	C350.685760,139.433167 368.350342,156.875961 386.477478,173.824203 
	C391.216583,178.255066 392.718536,182.762283 391.179565,189.882599 
	C374.728119,173.889542 358.725861,158.333191 342.464539,142.537445 
z"/>
<path fill="#0D0D0D" opacity="1.000000" stroke="none" 
	d="
M344.011292,213.750565 
	C359.789185,213.750534 375.069611,213.750534 391.044037,213.750534 
	C390.023590,217.834427 389.503967,221.310074 388.205200,224.464966 
	C387.639008,225.840286 385.488983,227.417313 384.034637,227.440811 
	C370.044647,227.667007 356.049194,227.628723 342.056793,227.500137 
	C340.850098,227.489044 339.247833,226.583252 338.526947,225.587845 
	C336.003662,222.103516 333.786133,218.397751 330.791656,213.750595 
	C335.480255,213.750595 339.497040,213.750595 344.011292,213.750565 
z"/>
<path fill="#121212" opacity="1.000000" stroke="none" 
	d="
M346.817139,117.168381 
	C359.905396,129.757355 372.516876,142.343216 385.689819,154.311035 
	C390.800964,158.954575 393.143066,163.717590 391.111053,171.371445 
	C371.940186,152.905899 353.027771,134.689331 333.467102,115.848328 
	C335.806915,114.171364 337.897888,112.672729 340.300659,110.950653 
	C342.014954,112.583847 344.289795,114.751106 346.817139,117.168381 
z"/>
<path fill="#141414" opacity="1.000000" stroke="none" 
	d="
M260.177551,130.176620 
	C268.332611,122.299263 276.607788,115.009102 283.998779,106.911903 
	C288.897888,101.544693 294.275940,102.167656 301.371399,102.922020 
	C284.013245,119.527977 267.374756,135.445496 250.617783,151.476334 
	C248.143463,145.366974 248.943619,141.080688 253.101852,137.015182 
	C255.362946,134.804535 257.647736,132.618149 260.177551,130.176620 
z"/>
<path fill="#121212" opacity="1.000000" stroke="none" 
	d="
M351.888367,115.114944 
	C348.840485,112.296127 346.051392,109.722168 343.354004,107.232826 
	C347.878387,101.131119 350.115601,100.921814 354.935547,105.580582 
	C365.119354,115.423897 375.298645,125.271927 385.472473,135.125580 
	C392.314331,141.752151 392.308716,141.757950 391.379608,152.844604 
	C377.908539,139.973618 365.027832,127.666710 351.888367,115.114944 
z"/>
<path fill="#0D0D0D" opacity="1.000000" stroke="none" 
	d="
M283.714233,190.793045 
	C272.361084,192.527252 261.478851,194.265015 253.546417,195.531723 
	C262.668549,185.517044 273.767517,173.332153 284.866455,161.147247 
	C285.584167,161.539108 286.301910,161.930954 287.019623,162.322815 
	C287.019623,167.176514 287.020538,172.030228 287.019318,176.883926 
	C287.018372,180.548157 287.221588,184.231689 286.882599,187.864517 
	C286.784424,188.916611 285.127502,189.823257 283.714233,190.793045 
z"/>
<path fill="#0D0D0D" opacity="1.000000" stroke="none" 
	d="
M362.000427,232.657227 
	C369.633820,232.657181 376.767365,232.657181 383.979187,232.657181 
	C382.258728,242.060318 377.122345,246.476151 368.355377,246.478470 
	C360.871613,246.480453 353.387848,246.478882 345.655457,246.478882 
	C344.483826,242.008591 343.364319,237.737259 342.032867,232.657257 
	C348.718750,232.657257 355.109680,232.657257 362.000427,232.657227 
z"/>
<path fill="#0D0D0D" opacity="1.000000" stroke="none" 
	d="
M354.105713,180.941193 
	C354.105713,174.553665 354.105713,168.658310 354.105713,162.762970 
	C354.469574,162.612289 354.833466,162.461609 355.197327,162.310928 
	C364.005768,172.064941 372.814240,181.818954 380.651428,190.497421 
	C373.795593,190.497421 364.359436,190.497421 354.105743,190.497421 
	C354.105743,187.575134 354.105743,184.504257 354.105713,180.941193 
z"/>
<path fill="#191919" opacity="1.000000" stroke="none" 
	d="
M365.294342,108.697601 
	C363.209412,107.031540 361.380096,105.609962 359.550751,104.188393 
	C365.098877,102.081497 369.399078,101.598640 373.232971,105.849152 
	C377.564545,110.651375 382.203979,115.245689 387.156860,119.396744 
	C391.517517,123.051498 392.761139,127.212135 391.173309,133.418579 
	C382.407501,125.045120 373.978699,116.993599 365.294342,108.697601 
z"/>
<path fill="#191919" opacity="1.000000" stroke="none" 
	d="
M262.575867,110.577682 
	C267.624756,105.746437 271.750122,99.572380 280.652832,103.384384 
	C270.513031,113.159569 260.578766,122.736603 250.076981,132.860779 
	C249.056320,127.638847 248.488922,123.577309 252.639771,120.124863 
	C256.071991,117.270164 259.110565,113.942207 262.575867,110.577682 
z"/>
<path fill="#121212" opacity="1.000000" stroke="none" 
	d="
M348.066040,251.581055 
	C355.778748,251.566742 362.997742,251.566742 371.591522,251.566742 
	C363.535339,260.221985 355.151123,265.627563 345.978180,269.007721 
	C345.978180,263.612396 345.934662,258.347565 346.047699,253.086105 
	C346.058594,252.578506 347.040955,252.091766 348.066040,251.581055 
z"/>
<path fill="#252525" opacity="1.000000" stroke="none" 
	d="
M379.125793,102.414383 
	C383.425903,102.346756 387.337677,102.346756 391.533508,102.346756 
	C391.533508,107.111710 391.533508,111.268974 391.533508,115.426239 
	C391.123566,115.734535 390.713623,116.042839 390.303711,116.351135 
	C386.448303,111.728096 382.592896,107.105049 379.125793,102.414383 
z"/>
<path fill="#303030" opacity="1.000000" stroke="none" 
	d="
M257.071320,109.083374 
	C254.696777,111.335327 252.583420,113.344246 249.325211,116.441460 
	C249.325211,111.574120 249.161728,108.191811 249.433762,104.844894 
	C249.506866,103.945549 250.854156,102.493996 251.704391,102.428024 
	C255.235886,102.153992 258.800964,102.312874 262.353729,102.312874 
	C262.743011,102.928886 263.132263,103.544891 263.521515,104.160904 
	C261.458527,105.720711 259.395508,107.280525 257.071320,109.083374 
z"/>
<path fill="#191919" opacity="1.000000" stroke="none" 
	d="
M97.596344,329.906921 
	C95.518517,329.954681 93.868729,329.954681 91.826477,329.954681 
	C91.826477,326.653809 91.826477,323.605286 91.826477,320.185059 
	C95.080711,320.332520 99.016083,318.104095 100.861046,322.519806 
	C102.041397,325.344849 101.884705,328.546021 97.596344,329.906921 
z"/>
<path fill="#191919" opacity="1.000000" stroke="none" 
	d="
M544.056213,329.962128 
	C542.800110,326.905670 541.987549,323.860443 540.758545,319.254913 
	C545.198730,320.110992 548.279480,320.086273 550.567444,321.420837 
	C551.627441,322.039124 552.076050,326.171875 551.145996,327.172821 
	C549.654053,328.778564 546.786133,329.105804 544.056213,329.962128 
z"/>
<path fill="#121212" opacity="1.000000" stroke="none" 
	d="
M295.601105,330.147980 
	C295.592163,335.292603 295.616516,339.958435 295.564240,344.623413 
	C295.526917,347.956635 294.130219,349.963043 290.438782,349.897491 
	C286.690247,349.830872 285.584808,347.681274 285.599060,344.379547 
	C285.627838,337.714600 285.623962,331.049438 285.605621,324.384430 
	C285.596588,321.091797 286.671326,318.979980 290.460785,318.908447 
	C294.225769,318.837341 295.474640,320.880524 295.570892,324.170502 
	C295.624481,326.002014 295.594116,327.835968 295.601105,330.147980 
z"/>
<path fill="#252525" opacity="1.000000" stroke="none" 
	d="
M371.102600,333.820068 
	C371.988342,337.502075 372.841156,340.752777 373.837769,344.551544 
	C371.387329,344.551544 369.708160,344.551544 367.716797,344.551544 
	C368.146912,340.616058 368.555084,336.881653 368.963257,333.147247 
	C369.665405,333.227753 370.367523,333.308258 371.102600,333.820068 
z"/>
<path fill="#E5E5E5" opacity="1.000000" stroke="none" 
	d="
M330.718689,170.292023 
	C330.744720,171.773529 330.716553,173.258362 330.807190,174.735901 
	C331.058563,178.833420 328.352814,178.942398 325.350037,179.068359 
	C322.261902,179.197891 320.610199,178.234924 320.926178,174.891724 
	C321.049622,173.585175 320.965637,172.259018 321.439331,170.362518 
	C324.841217,169.952820 327.779968,170.122421 330.718689,170.292023 
z"/>
<path fill="#E8E8E8" opacity="1.000000" stroke="none" 
	d="
M319.226105,169.607864 
	C319.390167,170.405212 319.585022,171.197662 319.713165,172.000732 
	C320.444794,176.586639 318.807159,178.852173 313.884369,178.036713 
	C312.785004,177.854614 311.629761,178.009995 309.977783,178.009995 
	C309.977783,175.450745 309.977783,173.207764 310.454895,170.386169 
	C313.696716,169.740967 316.461426,169.674423 319.226105,169.607864 
z"/>
<path fill="#EDEDED" opacity="1.000000" stroke="none" 
	d="
M321.967438,167.045929 
	C321.967438,164.422775 321.967438,161.799622 321.967438,158.765717 
	C324.685516,158.765717 327.362274,158.765717 330.575897,158.765717 
	C330.575897,161.421432 330.575897,163.999420 329.908234,166.830872 
	C326.816193,167.071518 324.391815,167.058731 321.967438,167.045929 
z"/>
<path fill="#EFEFEF" opacity="1.000000" stroke="none" 
	d="
M310.947876,167.076050 
	C310.947876,164.338425 310.947876,161.600815 310.947876,158.615158 
	C313.819641,158.615158 316.390503,158.615158 319.507477,158.615158 
	C319.507477,161.396103 319.507477,163.968185 318.858582,166.799957 
	C315.789093,167.065140 313.368500,167.070587 310.947876,167.076050 
z"/>
<path fill="#5B5B5B" opacity="1.000000" stroke="none" 
	d="
M321.901367,167.364517 
	C324.391815,167.058731 326.816193,167.071518 329.690460,167.157669 
	C330.373718,168.040649 330.607117,168.850266 330.779602,169.975952 
	C327.779968,170.122421 324.841217,169.952820 321.475342,169.922134 
	C321.310577,169.268402 321.572937,168.475754 321.901367,167.364517 
z"/>
<path fill="#5B5B5B" opacity="1.000000" stroke="none" 
	d="
M310.876892,167.391479 
	C313.368500,167.070587 315.789093,167.065140 318.660400,167.118195 
	C319.169312,167.782410 319.227570,168.388092 319.255951,169.300812 
	C316.461426,169.674423 313.696716,169.740967 310.493347,169.938629 
	C310.305084,169.282120 310.555511,168.494507 310.876892,167.391479 
z"/>
</svg>